<svg width="302" height="215" viewBox="0 0 302 215" fill="none" xmlns="http://www.w3.org/2000/svg">
<path d="M16.872 154.88V181.056C16.872 183.488 17.4267 185.365 18.536 186.688C19.688 188.011 21.416 188.672 23.72 188.672C26.024 188.672 27.752 188.011 28.904 186.688C30.0987 185.323 30.696 183.445 30.696 181.056V154.88H43.24V181.056C43.24 185.195 42.3653 188.736 40.616 191.68C38.8667 194.581 36.4773 196.779 33.448 198.272C30.4613 199.723 27.1333 200.448 23.464 200.448C19.7947 200.448 16.5093 199.723 13.608 198.272C10.7493 196.779 8.488 194.581 6.824 191.68C5.20267 188.779 4.392 185.237 4.392 181.056V154.88H16.872ZM73.6345 163.776C77.7732 163.776 81.0585 165.163 83.4905 167.936C85.9225 170.667 87.1385 174.379 87.1385 179.072V200H74.5945V180.736C74.5945 178.688 74.0612 177.088 72.9945 175.936C71.9278 174.741 70.4985 174.144 68.7065 174.144C66.8292 174.144 65.3572 174.741 64.2905 175.936C63.2238 177.088 62.6905 178.688 62.6905 180.736V200H50.1465V164.096H62.6905V169.216C63.7998 167.595 65.2932 166.293 67.1705 165.312C69.0478 164.288 71.2025 163.776 73.6345 163.776ZM100.358 160.768C98.1388 160.768 96.3468 160.171 94.9815 158.976C93.6588 157.739 92.9975 156.203 92.9975 154.368C92.9975 152.491 93.6588 150.933 94.9815 149.696C96.3468 148.459 98.1388 147.84 100.358 147.84C102.534 147.84 104.283 148.459 105.606 149.696C106.971 150.933 107.654 152.491 107.654 154.368C107.654 156.203 106.971 157.739 105.606 158.976C104.283 160.171 102.534 160.768 100.358 160.768ZM106.566 164.096V200H94.0215V164.096H106.566ZM147.693 154.88V164.864H135.661V200H123.117V164.864H111.213V154.88H147.693ZM164.878 170.432C166.286 168.384 167.993 166.763 169.998 165.568C172.003 164.373 174.158 163.776 176.462 163.776V177.152H172.942C170.211 177.152 168.185 177.685 166.862 178.752C165.539 179.819 164.878 181.675 164.878 184.32V200H152.334V164.096H164.878V170.432ZM197.663 200.448C194.079 200.448 190.858 199.701 187.999 198.208C185.183 196.715 182.964 194.581 181.343 191.808C179.722 189.035 178.911 185.771 178.911 182.016C178.911 178.304 179.722 175.061 181.343 172.288C183.007 169.515 185.247 167.381 188.063 165.888C190.922 164.395 194.143 163.648 197.727 163.648C201.311 163.648 204.511 164.395 207.327 165.888C210.186 167.381 212.426 169.515 214.047 172.288C215.711 175.061 216.543 178.304 216.543 182.016C216.543 185.728 215.711 188.992 214.047 191.808C212.426 194.581 210.186 196.715 207.327 198.208C204.468 199.701 201.247 200.448 197.663 200.448ZM197.663 189.568C199.412 189.568 200.863 188.928 202.015 187.648C203.21 186.325 203.807 184.448 203.807 182.016C203.807 179.584 203.21 177.728 202.015 176.448C200.863 175.168 199.434 174.528 197.727 174.528C196.02 174.528 194.591 175.168 193.439 176.448C192.287 177.728 191.711 179.584 191.711 182.016C191.711 184.491 192.266 186.368 193.375 187.648C194.484 188.928 195.914 189.568 197.663 189.568ZM238.863 188.16L245.583 164.096H258.959L246.607 200H230.991L218.639 164.096H232.015L238.863 188.16ZM297.513 181.632C297.513 182.613 297.449 183.595 297.321 184.576H273.577C273.705 186.539 274.238 188.011 275.177 188.992C276.158 189.931 277.396 190.4 278.889 190.4C280.98 190.4 282.473 189.461 283.369 187.584H296.745C296.19 190.059 295.102 192.277 293.481 194.24C291.902 196.16 289.897 197.675 287.465 198.784C285.033 199.893 282.345 200.448 279.401 200.448C275.86 200.448 272.702 199.701 269.929 198.208C267.198 196.715 265.044 194.581 263.465 191.808C261.929 189.035 261.161 185.771 261.161 182.016C261.161 178.261 261.929 175.019 263.465 172.288C265.001 169.515 267.134 167.381 269.865 165.888C272.638 164.395 275.817 163.648 279.401 163.648C282.942 163.648 286.078 164.373 288.809 165.824C291.54 167.275 293.673 169.365 295.209 172.096C296.745 174.784 297.513 177.963 297.513 181.632ZM284.713 178.496C284.713 176.96 284.201 175.765 283.177 174.912C282.153 174.016 280.873 173.568 279.337 173.568C277.801 173.568 276.542 173.995 275.561 174.848C274.58 175.659 273.94 176.875 273.641 178.496H284.713Z" fill="#2E3192"/>
<circle cx="151" cy="65" r="65" fill="#2E3192"/>
<g filter="url(#filter0_d_270_1072)">
<path d="M128 38H174.667C177.319 38 179.862 39.0536 181.738 40.9289C183.613 42.8043 184.667 45.3478 184.667 48V61.3333H161.333V58H141.333V61.3333H118V48C118 45.3478 119.054 42.8043 120.929 40.9289C122.804 39.0536 125.348 38 128 38ZM148 61.3333H154.667V68H148V61.3333ZM118 64.6667H141.333V68L148 74.6667H154.667L161.333 68V64.6667H184.667V91.3333H118V64.6667Z" fill="white"/>
</g>
<g filter="url(#filter1_d_270_1072)">
<path d="M16.872 154.88V181.056C16.872 183.488 17.4267 185.365 18.536 186.688C19.688 188.011 21.416 188.672 23.72 188.672C26.024 188.672 27.752 188.011 28.904 186.688C30.0987 185.323 30.696 183.445 30.696 181.056V154.88H43.24V181.056C43.24 185.195 42.3653 188.736 40.616 191.68C38.8667 194.581 36.4773 196.779 33.448 198.272C30.4613 199.723 27.1333 200.448 23.464 200.448C19.7947 200.448 16.5093 199.723 13.608 198.272C10.7493 196.779 8.488 194.581 6.824 191.68C5.20267 188.779 4.392 185.237 4.392 181.056V154.88H16.872ZM73.6345 163.776C77.7732 163.776 81.0585 165.163 83.4905 167.936C85.9225 170.667 87.1385 174.379 87.1385 179.072V200H74.5945V180.736C74.5945 178.688 74.0612 177.088 72.9945 175.936C71.9278 174.741 70.4985 174.144 68.7065 174.144C66.8292 174.144 65.3572 174.741 64.2905 175.936C63.2238 177.088 62.6905 178.688 62.6905 180.736V200H50.1465V164.096H62.6905V169.216C63.7998 167.595 65.2932 166.293 67.1705 165.312C69.0478 164.288 71.2025 163.776 73.6345 163.776ZM100.358 160.768C98.1388 160.768 96.3468 160.171 94.9815 158.976C93.6588 157.739 92.9975 156.203 92.9975 154.368C92.9975 152.491 93.6588 150.933 94.9815 149.696C96.3468 148.459 98.1388 147.84 100.358 147.84C102.534 147.84 104.283 148.459 105.606 149.696C106.971 150.933 107.654 152.491 107.654 154.368C107.654 156.203 106.971 157.739 105.606 158.976C104.283 160.171 102.534 160.768 100.358 160.768ZM106.566 164.096V200H94.0215V164.096H106.566ZM147.693 154.88V164.864H135.661V200H123.117V164.864H111.213V154.88H147.693ZM164.878 170.432C166.286 168.384 167.993 166.763 169.998 165.568C172.003 164.373 174.158 163.776 176.462 163.776V177.152H172.942C170.211 177.152 168.185 177.685 166.862 178.752C165.539 179.819 164.878 181.675 164.878 184.32V200H152.334V164.096H164.878V170.432ZM197.663 200.448C194.079 200.448 190.858 199.701 187.999 198.208C185.183 196.715 182.964 194.581 181.343 191.808C179.722 189.035 178.911 185.771 178.911 182.016C178.911 178.304 179.722 175.061 181.343 172.288C183.007 169.515 185.247 167.381 188.063 165.888C190.922 164.395 194.143 163.648 197.727 163.648C201.311 163.648 204.511 164.395 207.327 165.888C210.186 167.381 212.426 169.515 214.047 172.288C215.711 175.061 216.543 178.304 216.543 182.016C216.543 185.728 215.711 188.992 214.047 191.808C212.426 194.581 210.186 196.715 207.327 198.208C204.468 199.701 201.247 200.448 197.663 200.448ZM197.663 189.568C199.412 189.568 200.863 188.928 202.015 187.648C203.21 186.325 203.807 184.448 203.807 182.016C203.807 179.584 203.21 177.728 202.015 176.448C200.863 175.168 199.434 174.528 197.727 174.528C196.02 174.528 194.591 175.168 193.439 176.448C192.287 177.728 191.711 179.584 191.711 182.016C191.711 184.491 192.266 186.368 193.375 187.648C194.484 188.928 195.914 189.568 197.663 189.568ZM238.863 188.16L245.583 164.096H258.959L246.607 200H230.991L218.639 164.096H232.015L238.863 188.16ZM297.513 181.632C297.513 182.613 297.449 183.595 297.321 184.576H273.577C273.705 186.539 274.238 188.011 275.177 188.992C276.158 189.931 277.396 190.4 278.889 190.4C280.98 190.4 282.473 189.461 283.369 187.584H296.745C296.19 190.059 295.102 192.277 293.481 194.24C291.902 196.16 289.897 197.675 287.465 198.784C285.033 199.893 282.345 200.448 279.401 200.448C275.86 200.448 272.702 199.701 269.929 198.208C267.198 196.715 265.044 194.581 263.465 191.808C261.929 189.035 261.161 185.771 261.161 182.016C261.161 178.261 261.929 175.019 263.465 172.288C265.001 169.515 267.134 167.381 269.865 165.888C272.638 164.395 275.817 163.648 279.401 163.648C282.942 163.648 286.078 164.373 288.809 165.824C291.54 167.275 293.673 169.365 295.209 172.096C296.745 174.784 297.513 177.963 297.513 181.632ZM284.713 178.496C284.713 176.96 284.201 175.765 283.177 174.912C282.153 174.016 280.873 173.568 279.337 173.568C277.801 173.568 276.542 173.995 275.561 174.848C274.58 175.659 273.94 176.875 273.641 178.496H284.713Z" fill="#2E3192"/>
</g>
<g filter="url(#filter2_d_270_1072)">
<circle cx="151" cy="65" r="65" fill="#2E3192"/>
</g>
<g filter="url(#filter3_d_270_1072)">
<path d="M128 38H174.667C177.319 38 179.862 39.0536 181.738 40.9289C183.613 42.8043 184.667 45.3478 184.667 48V61.3333H161.333V58H141.333V61.3333H118V48C118 45.3478 119.054 42.8043 120.929 40.9289C122.804 39.0536 125.348 38 128 38ZM148 61.3333H154.667V68H148V61.3333ZM118 64.6667H141.333V68L148 74.6667H154.667L161.333 68V64.6667H184.667V91.3333H118V64.6667Z" fill="white"/>
</g>
<defs>
<filter id="filter0_d_270_1072" x="114" y="38" width="74.666" height="61.3333" filterUnits="userSpaceOnUse" color-interpolation-filters="sRGB">
<feFlood flood-opacity="0" result="BackgroundImageFix"/>
<feColorMatrix in="SourceAlpha" type="matrix" values="0 0 0 0 0 0 0 0 0 0 0 0 0 0 0 0 0 0 127 0" result="hardAlpha"/>
<feOffset dy="4"/>
<feGaussianBlur stdDeviation="2"/>
<feComposite in2="hardAlpha" operator="out"/>
<feColorMatrix type="matrix" values="0 0 0 0 0 0 0 0 0 0 0 0 0 0 0 0 0 0 0.25 0"/>
<feBlend mode="normal" in2="BackgroundImageFix" result="effect1_dropShadow_270_1072"/>
<feBlend mode="normal" in="SourceGraphic" in2="effect1_dropShadow_270_1072" result="shape"/>
</filter>
<filter id="filter1_d_270_1072" x="0.392578" y="147.84" width="301.121" height="60.608" filterUnits="userSpaceOnUse" color-interpolation-filters="sRGB">
<feFlood flood-opacity="0" result="BackgroundImageFix"/>
<feColorMatrix in="SourceAlpha" type="matrix" values="0 0 0 0 0 0 0 0 0 0 0 0 0 0 0 0 0 0 127 0" result="hardAlpha"/>
<feOffset dy="4"/>
<feGaussianBlur stdDeviation="2"/>
<feComposite in2="hardAlpha" operator="out"/>
<feColorMatrix type="matrix" values="0 0 0 0 0 0 0 0 0 0 0 0 0 0 0 0 0 0 0.25 0"/>
<feBlend mode="normal" in2="BackgroundImageFix" result="effect1_dropShadow_270_1072"/>
<feBlend mode="normal" in="SourceGraphic" in2="effect1_dropShadow_270_1072" result="shape"/>
</filter>
<filter id="filter2_d_270_1072" x="82" y="0" width="138" height="138" filterUnits="userSpaceOnUse" color-interpolation-filters="sRGB">
<feFlood flood-opacity="0" result="BackgroundImageFix"/>
<feColorMatrix in="SourceAlpha" type="matrix" values="0 0 0 0 0 0 0 0 0 0 0 0 0 0 0 0 0 0 127 0" result="hardAlpha"/>
<feOffset dy="4"/>
<feGaussianBlur stdDeviation="2"/>
<feComposite in2="hardAlpha" operator="out"/>
<feColorMatrix type="matrix" values="0 0 0 0 0 0 0 0 0 0 0 0 0 0 0 0 0 0 0.25 0"/>
<feBlend mode="normal" in2="BackgroundImageFix" result="effect1_dropShadow_270_1072"/>
<feBlend mode="normal" in="SourceGraphic" in2="effect1_dropShadow_270_1072" result="shape"/>
</filter>
<filter id="filter3_d_270_1072" x="114" y="38" width="74.666" height="61.3333" filterUnits="userSpaceOnUse" color-interpolation-filters="sRGB">
<feFlood flood-opacity="0" result="BackgroundImageFix"/>
<feColorMatrix in="SourceAlpha" type="matrix" values="0 0 0 0 0 0 0 0 0 0 0 0 0 0 0 0 0 0 127 0" result="hardAlpha"/>
<feOffset dy="4"/>
<feGaussianBlur stdDeviation="2"/>
<feComposite in2="hardAlpha" operator="out"/>
<feColorMatrix type="matrix" values="0 0 0 0 0 0 0 0 0 0 0 0 0 0 0 0 0 0 0.25 0"/>
<feBlend mode="normal" in2="BackgroundImageFix" result="effect1_dropShadow_270_1072"/>
<feBlend mode="normal" in="SourceGraphic" in2="effect1_dropShadow_270_1072" result="shape"/>
</filter>
</defs>
</svg>
